<svg width="18" height="18" viewBox="0 0 18 18" fill="none" xmlns="http://www.w3.org/2000/svg">
<path d="M8.99965 11.7727C10.5301 11.7727 11.7708 10.5321 11.7708 9.0016C11.7708 7.47115 10.5301 6.23047 8.99965 6.23047C7.46919 6.23047 6.22852 7.47115 6.22852 9.0016C6.22852 10.5321 7.46919 11.7727 8.99965 11.7727Z" fill="#CFA935"/>
<path d="M17.7239 8.23439C15.5938 5.66036 12.3694 3.18262 9.00003 3.18262C5.62999 3.18262 2.40484 5.66209 0.276161 8.23439C-0.0920536 8.67916 -0.0920536 9.32483 0.276161 9.7696C0.811336 10.4163 1.9333 11.6647 3.43179 12.7555C7.20569 15.5028 10.7861 15.5089 14.5683 12.7555C16.0668 11.6647 17.1887 10.4163 17.7239 9.7696C18.091 9.3257 18.093 8.68061 17.7239 8.23439ZM9.00003 5.12241C11.1393 5.12241 12.8796 6.86268 12.8796 9.002C12.8796 11.1413 11.1393 12.8816 9.00003 12.8816C6.86072 12.8816 5.12045 11.1413 5.12045 9.002C5.12045 6.86268 6.86072 5.12241 9.00003 5.12241Z" fill="#CFA935"/>
</svg>
