<svg width="50" height="50" viewBox="0 0 50 50" fill="none" xmlns="http://www.w3.org/2000/svg">
<g id="add-user 2" clip-path="url(#clip0_5656_14854)">
<g id="Layer_2_00000100377928600447027650000014086177657009069482_">
<g id="Social_Icon">
<g id="UserPlus">
<path id="Vector" d="M21.5038 28.5262C24.7264 28.5262 27.7049 27.618 30.0878 26.0751C31.9335 24.8934 34.3358 25.0887 35.9569 26.5633C40.4588 30.6454 43.0174 36.4364 43.0077 42.5204V45.1278C43.0077 47.8231 40.8202 50.0008 38.1249 50.0008H4.88268C2.18737 50.0008 -0.000133133 47.8231 -0.000133133 45.1278V42.5204C-0.0196644 36.4462 2.53893 30.6454 7.04088 26.5731C8.66198 25.0985 11.0741 24.9032 12.91 26.0848C15.3026 27.618 18.2811 28.5262 21.5038 28.5262Z" fill="white"/>
<path id="Vector_2" d="M21.739 24.1797C28.416 24.1797 33.8289 18.7669 33.8289 12.0898C33.8289 5.41281 28.416 0 21.739 0C15.062 0 9.64917 5.41281 9.64917 12.0898C9.64917 18.7669 15.062 24.1797 21.739 24.1797Z" fill="white" fill-opacity="0.57"/>
</g>
</g>
</g>
<path id="Line 10" d="M36.842 21.0527L47.3684 21.0527" stroke="white" stroke-width="4.5" stroke-linecap="round"/>
</g>
<defs>
<clipPath id="clip0_5656_14854">
<rect width="50" height="50" fill="white"/>
</clipPath>
</defs>
</svg>
